<?xml version="1.0" encoding="utf-8"?>
<!-- Generator: Adobe Illustrator 16.0.0, SVG Export Plug-In . SVG Version: 6.00 Build 0)  -->
<!DOCTYPE svg PUBLIC "-//W3C//DTD SVG 1.1//EN" "http://www.w3.org/Graphics/SVG/1.1/DTD/svg11.dtd">
<svg version="1.1" id="Layer_1" xmlns="http://www.w3.org/2000/svg" xmlns:xlink="http://www.w3.org/1999/xlink" x="0px" y="0px"
	 width="318.919px" height="357.837px" viewBox="0 0 318.919 357.837" enable-background="new 0 0 318.919 357.837"
	 xml:space="preserve">
<g>
	<path fill="#823D97" d="M157.796,58.711l0.024-0.006l-11.623-43.034l-6.24,1.686l11.615,43.005l-24.454,6.604l-19.805,5.349
		l-24.412,6.594L71.287,35.904l-6.239,1.686l11.615,43.005l-0.016,0.004c15.007,84.024,2.83,122.276,0.828,142.008l33.603,124.414
		l65.643-17.729l19.805-5.349l65.644-17.729l-33.603-124.414C216.903,165.76,187.128,138.844,157.796,58.711z"/>
	<path fill="none" stroke="#FFFFFF" stroke-width="5" stroke-miterlimit="10" d="M188.054,190.649"/>
	<path fill="none" stroke="#FFFFFF" stroke-width="5" stroke-miterlimit="10" d="M115.823,213.868"/>
	<g>
		<path fill="#FFFFFF" d="M242.12,10.071c-2.789-1.763-6.514-0.924-8.277,1.865l-0.936,1.481c-1.764,2.789-4.649,7.354-6.412,10.143
			l-71.092,112.441c-1.763,2.789-3.14,7.771-3.059,11.069l0.275,11.274c0.081,3.299,2.614,4.899,5.629,3.558l10.301-4.586
			c3.015-1.342,6.925-4.723,8.688-7.512l71.092-112.439c1.763-2.789,4.648-7.354,6.412-10.143l0.937-1.481
			c1.764-2.789,0.924-6.515-1.865-8.277L242.12,10.071z"/>
		<path fill="none" stroke="#F69071" stroke-width="5" stroke-miterlimit="10" d="M242.12,10.071
			c-2.789-1.763-6.514-0.924-8.277,1.865l-0.936,1.481c-1.764,2.789-4.649,7.354-6.412,10.143l-71.092,112.441
			c-1.763,2.789-3.14,7.771-3.059,11.069l0.275,11.274c0.081,3.299,2.614,4.899,5.629,3.558l10.301-4.586
			c3.015-1.342,6.925-4.723,8.688-7.512l71.092-112.439c1.763-2.789,4.648-7.354,6.412-10.143l0.937-1.481
			c1.764-2.789,0.924-6.515-1.865-8.277L242.12,10.071z"/>
	</g>
	<g>
		<path fill="#FEDFC6" d="M158.579,148.436c-0.081-3.299,1.296-8.28,3.06-11.069l73.734-116.624
			c1.764-2.789,5.488-3.629,8.277-1.865l1.551,0.98c2.789,1.764,3.629,5.488,1.865,8.277L173.33,144.759
			c-1.764,2.789-5.673,6.169-8.688,7.512l-0.425,0.188c-3.015,1.343-5.547-0.259-5.628-3.558L158.579,148.436z"/>
	</g>
	
		<line fill="#FFFFFF" stroke="#F69071" stroke-width="5" stroke-miterlimit="10" x1="152.197" y1="141.073" x2="174.031" y2="154.876"/>
	
		<line fill="#FFFFFF" stroke="#F69071" stroke-width="5" stroke-miterlimit="10" x1="226.16" y1="24.089" x2="247.994" y2="37.894"/>
	<line fill="none" stroke="#F69071" stroke-width="5" stroke-miterlimit="10" x1="237.077" y1="30.991" x2="163.114" y2="147.976"/>
	<g id="carrot_1_">
		<path fill="#FFFFFF" stroke="#F69071" stroke-width="5" stroke-miterlimit="10" d="M148.775,328.836
			c-3.531-1.755-104.083-73.404-108.179-76.928c-29.944-25.769,8.307-59.609,31.882-32.845c6.533,7.413,82.167,96.964,83.694,99.095
			C162.046,326.355,155.074,331.964,148.775,328.836z"/>
		<g>
			<path fill="#FEDFC6" d="M151.924,323.346c-0.073-0.022-0.153-0.053-0.24-0.092c-6.052-3.688-102.013-71.953-107-76.125
				c-7.611-6.55-10.419-13.935-7.89-20.777c2.342-6.335,8.849-10.772,15.826-10.793c5.476-0.014,10.711,2.637,15.139,7.662
				c6.488,7.366,80.04,94.437,83.345,98.662C151.543,322.505,151.787,322.994,151.924,323.346z"/>
		</g>
		<path fill="none" stroke="#FFFFFF" stroke-width="3" stroke-miterlimit="10" d="M139.823,244.653"/>
		<path fill="none" stroke="#FFFFFF" stroke-width="3" stroke-miterlimit="10" d="M115.823,220.782"/>
		<path fill="none" stroke="#FFFFFF" stroke-width="3" stroke-miterlimit="10" d="M53.818,331.125"/>
		<path fill="none" stroke="#FFFFFF" stroke-width="3" stroke-miterlimit="10" d="M29.819,307.253"/>
		<path fill="none" stroke="#FFFFFF" stroke-width="3" stroke-miterlimit="10" d="M146.699,237.739"/>
		<path fill="none" stroke="#FFFFFF" stroke-width="3" stroke-miterlimit="10" d="M122.699,213.868"/>
		<path fill="#FFFFFF" stroke="#F69071" stroke-width="5" stroke-miterlimit="10" d="M36.576,217.049"/>
		<path fill="#FFFFFF" stroke="#F69071" stroke-width="5" stroke-miterlimit="10" d="M11.378,190.649"/>
		<path fill="#FFFFFF" stroke="#F69071" stroke-width="5" stroke-miterlimit="10" d="M36.577,217.149"/>
		
			<line fill="#FFFFFF" stroke="#F69071" stroke-width="5" stroke-miterlimit="10" x1="106.589" y1="259.21" x2="94.536" y2="271.33"/>
		
			<line fill="#FFFFFF" stroke="#F69071" stroke-width="5" stroke-miterlimit="10" x1="105.681" y1="285.464" x2="97.273" y2="293.916"/>
		
			<line fill="#FFFFFF" stroke="#F69071" stroke-width="5" stroke-miterlimit="10" x1="76.042" y1="262.219" x2="67.634" y2="270.671"/>
		
			<line fill="#FFFFFF" stroke="#F69071" stroke-width="5" stroke-miterlimit="10" x1="139.143" y1="310.204" x2="130.737" y2="318.657"/>
		
			<line fill="#FFFFFF" stroke="#F69071" stroke-width="5" stroke-miterlimit="10" x1="83.225" y1="232.207" x2="68.732" y2="246.776"/>
		
			<line fill="#FFFFFF" stroke="#F69071" stroke-width="5" stroke-miterlimit="10" x1="131.632" y1="285.394" x2="124.4" y2="292.664"/>
		<polyline fill="none" stroke="#F69071" stroke-width="5" stroke-miterlimit="10" points="12.166,206.8 32.402,207.817 
			32.951,188.006 		"/>
		
			<line fill="#FFFFFF" stroke="#F69071" stroke-width="5" stroke-miterlimit="10" x1="32.402" y1="207.817" x2="16.233" y2="189.934"/>
	</g>
	<path fill="#FFFFFF" stroke="#F69071" stroke-width="5" stroke-miterlimit="10" d="M291.536,211.798
		c-2.813,12.595-15.305,20.523-27.9,17.709l0,0c-12.595-2.814-20.522-15.304-17.709-27.9l4.158-18.609
		c2.813-12.596,15.306-20.523,27.9-17.709l0,0c12.594,2.813,20.523,15.305,17.71,27.899L291.536,211.798z"/>
	<path fill="#FEDFC6" d="M264.944,223.652c-9.345-2.088-15.25-11.391-13.162-20.736l4.158-18.609
		c2.088-9.346,11.391-15.25,20.736-13.162s15.251,11.39,13.162,20.735l-4.158,18.609C283.592,219.835,274.29,225.74,264.944,223.652
		z"/>
	<path fill="none" stroke="#F69071" stroke-width="5" stroke-miterlimit="10" d="M260.637,230.604
		c-1.331,3.127-3.374,7.741-2.043,11.174c1.607,4.145,5.227,3.49,8.669,5.03c8.127,3.637,5.268,15.028,0.398,20.655"/>
	
		<line fill="none" stroke="#F69071" stroke-width="7" stroke-miterlimit="10" x1="250.084" y1="182.998" x2="295.695" y2="193.188"/>
	
		<line fill="none" stroke="#F69071" stroke-width="7" stroke-miterlimit="10" x1="272.889" y1="188.093" x2="277.985" y2="165.289"/>
</g>
</svg>
