<?xml version="1.0" encoding="utf-8"?>
<!-- Generator: Adobe Illustrator 16.0.0, SVG Export Plug-In . SVG Version: 6.00 Build 0)  -->
<!DOCTYPE svg PUBLIC "-//W3C//DTD SVG 1.1//EN" "http://www.w3.org/Graphics/SVG/1.1/DTD/svg11.dtd">
<svg version="1.1" id="Layer_1" xmlns="http://www.w3.org/2000/svg" xmlns:xlink="http://www.w3.org/1999/xlink" x="0px" y="0px"
	 width="206.487px" height="188.108px" viewBox="0 0 206.487 188.108" enable-background="new 0 0 206.487 188.108"
	 xml:space="preserve">
<g id="STATE_1_">
	<path fill-rule="evenodd" clip-rule="evenodd" fill="#FFFFFF" stroke="#F68F71" stroke-width="5" stroke-miterlimit="10" d="
		M32.99,16.048h96.666v149.061H87.99c0,0-74.041-33.475-74.666-34.475s-3.584-4.166-0.834-5.998c2.75-1.834,5.75-4.916,4.416-7.584
		c-1.332-2.666-3.498-10.332-2.332-11.75c1.166-1.416,5.25-12.582,5.25-12.582l7.25-6.916c0,0-9.334-16.918-9.334-18.5
		c0-1.584-2.834-26.334-2.834-27.584s5-1.834,6.168-2.084c1.166-0.25,4.25-0.5,4.916,0.334S32.99,16.048,32.99,16.048z"/>
	<path fill-rule="evenodd" clip-rule="evenodd" fill="#FEDFC6" d="M89.714,157.108c-22.16-10.023-54.846-24.918-67.285-30.828
		c3.49-4.609,3.359-9.354,1.633-12.805c-0.535-1.072-1.398-3.945-1.707-5.697c0.898-1.803,2.236-4.912,4.334-10.551l10.367-9.893
		l-2.979-5.396c-3.369-6.105-7.322-13.605-8.422-16.145c-0.154-1.861-0.557-5.68-1.504-14.426c-0.189-1.742-0.395-3.637-0.584-5.396
		c0,0,2.482,0.02,2.502,0.02c6.301,0,7.59-2.691,12.994-21.943h82.592v133.061H89.714z"/>
	<path fill="#813C97" d="M139.905,176.509v-70.484c0,0-11.524,0.115-13.688,0c-7.515-0.396-17.489-7.42-17.825-15.549
		c-0.184-4.371-0.081-23.459-0.081-25.797c0-15.137,18.459-15.63,19.349,0.357c0.183,3.24,0.107,16.025,0.183,17.285
		c0.181,3.063,3.423,4.145,3.423,4.145l8.458-0.182c0,0,0.283-35.078,0.182-38.9c-0.538-20.703,27.2-20.306,28.272,0
		c0.182,3.423,0,48.085,0,48.085h7.562c0,0,3.781-0.436,3.781-4.994c0-4.557-0.147-16.9,0-18.775
		c1.085-13.148,19.45-11.348,19.45,0.924c0,5.307-0.005,10.613,0.035,15.92c0.074,9.596-1.002,22.645-11.938,25.871
		c-5.677,1.674-11.8,1-17.63,0.863v61.23"/>
	<path fill="none" stroke="#813D96" stroke-width="2" stroke-miterlimit="10" d="M79.332,80.052"/>
	<path fill="none" stroke="#813D96" stroke-width="2" stroke-miterlimit="10" d="M59.408,80.052"/>
	<text transform="matrix(1 0 0 1 41.5825 121.1738)" fill="#813D96" font-family="'RobotoSlab-Bold'" font-size="27">AZ</text>
</g>
</svg>
