<?xml version="1.0" encoding="utf-8"?>
<!-- Generator: Adobe Illustrator 16.0.0, SVG Export Plug-In . SVG Version: 6.00 Build 0)  -->
<!DOCTYPE svg PUBLIC "-//W3C//DTD SVG 1.1//EN" "http://www.w3.org/Graphics/SVG/1.1/DTD/svg11.dtd">
<svg version="1.1" id="Layer_1" xmlns="http://www.w3.org/2000/svg" xmlns:xlink="http://www.w3.org/1999/xlink" x="0px" y="0px"
	 width="205.946px" height="165.108px" viewBox="0 0 205.946 165.108" enable-background="new 0 0 205.946 165.108"
	 xml:space="preserve">
<g id="BOOK">
	<g>
		<g>
			<path fill="#F9F9FA" d="M19.289,132.829V16.071c-3.76-0.303-7.707-0.544-11.851-0.714l0.536,124.545
				c49.904-0.578,82.706,7.504,82.706,7.504l0,0C78.316,141.577,53.394,132.432,19.289,132.829z"/>
			<path fill="#F69071" d="M90.083,149.834c-0.314-0.077-33.103-8.007-82.08-7.432l-2.518,0.028L4.927,12.752l2.614,0.107
				c4.069,0.167,8.089,0.409,11.949,0.72l2.299,0.185v116.551c33.634,0.064,58.253,9.311,69.958,14.83L90.083,149.834z
				 M13.082,137.373c19.676,0,36.579,1.332,49.583,2.881c-11.853-2.93-26.471-5.129-43.347-4.925l-2.529,0.029V18.388
				c-2.241-0.162-4.527-0.3-6.839-0.415l0.514,119.407C11.342,137.376,12.216,137.373,13.082,137.373z"/>
		</g>
		<g>
			<path fill="#FFFFFF" d="M99.444,30.322c0,0-14.259-20.81-80.155-23.507v126.013c49.904-0.578,80.155,19.268,80.155,19.268V30.322
				z"/>
			<path fill="#F69071" d="M101.944,156.726l-3.871-2.539c-0.368-0.24-30.365-19.445-78.756-18.858l-2.529,0.029V4.211l2.602,0.106
				c66.385,2.717,81.504,23.7,82.116,24.592l0.438,0.639V156.726z M21.789,130.316c39.082,0.076,65.625,12.246,75.155,17.426V31.214
				C94.155,28.112,77.2,12.164,21.789,9.431V130.316z"/>
		</g>
		<g>
			<path fill="#FEDFC6" d="M91.444,138.942c-12.737-5.674-34.819-13.139-64.155-14.037V15.266
				c42.899,2.975,59.453,14.161,64.155,18.258V138.942z"/>
		</g>
	</g>
	<g>
		<g>
			<path fill="#F9F9FA" d="M182.297,132.829V16.071c3.76-0.303,7.705-0.544,11.85-0.714l-0.535,124.545
				c-49.904-0.578-82.707,7.504-82.707,7.504l0,0C123.27,141.577,148.191,132.432,182.297,132.829z"/>
			<path fill="#F69071" d="M111.503,149.833l-1.665-4.688c11.705-5.52,36.324-14.766,69.959-14.83V13.765l2.299-0.185
				c3.861-0.311,7.882-0.553,11.948-0.72l2.614-0.107l-0.558,129.679l-2.519-0.028C144.533,141.835,111.816,149.756,111.503,149.833
				z M180.152,135.316c-15.989,0-29.878,2.132-41.232,4.938c13.577-1.616,31.359-2.988,52.202-2.873l0.513-119.407
				c-2.311,0.114-4.598,0.253-6.838,0.415v116.97l-2.529-0.029C181.557,135.32,180.855,135.316,180.152,135.316z"/>
		</g>
		<g>
			<path fill="#FFFFFF" d="M102.141,30.322c0,0,14.26-20.81,80.156-23.507v126.013c-49.904-0.578-80.156,19.268-80.156,19.268
				V30.322z"/>
			<path fill="#F69071" d="M99.643,156.716l-0.002-4.62V29.548l0.438-0.639c0.611-0.892,15.73-21.875,82.117-24.592l2.602-0.106
				v131.147l-2.529-0.029c-48.482-0.576-78.465,18.667-78.757,18.858L99.643,156.716z M104.641,31.197v116.544
				c9.531-5.18,36.074-17.35,75.156-17.426V9.431C123.977,12.175,107.391,28.057,104.641,31.197z"/>
		</g>
	</g>
	<g>
		<path fill="#FEDFC6" d="M110.141,138.942c12.738-5.674,34.82-13.139,64.156-14.037V15.266
			c-42.9,2.975-59.453,14.161-64.156,18.258V138.942z"/>
	</g>
	<g>
		<g>
			<path fill="#813D96" d="M43.413,72.032l8.399,2.825v4.714l-13.573-5.528v-4.084l13.573-5.527v4.698L43.413,72.032z"/>
		</g>
		<g>
			<path fill="#813D96" d="M56.787,83.301h-3.67l7.631-24.275h3.685L56.787,83.301z"/>
		</g>
		<g>
			<path fill="#813D96" d="M72.143,71.986l-8.353-2.841v-4.698l13.497,5.527v4.084L63.79,79.585v-4.698L72.143,71.986z"/>
		</g>
	</g>
	<g>
		<g>
			<path fill="#813D96" d="M137.162,86.91c-3.686-1.034-5.528-3.414-5.528-7.14v-3.04c0-2.067-0.829-3.102-2.487-3.102v-3.485
				c1.658,0,2.487-1.039,2.487-3.117v-3.225c0.03-1.842,0.509-3.332,1.436-4.468c0.927-1.137,2.29-1.96,4.093-2.472l0.967,2.702
				c-1.29,0.491-1.961,1.868-2.012,4.13v3.332c0,2.293-0.947,3.91-2.84,4.853c1.893,0.941,2.84,2.563,2.84,4.867v3.316
				c0.051,2.262,0.722,3.639,2.012,4.13L137.162,86.91z"/>
		</g>
		<g>
			<path fill="#813D96" d="M147.203,84.192c1.289-0.491,1.96-1.868,2.012-4.13V76.73c0-2.303,0.951-3.921,2.855-4.852
				c-1.904-0.932-2.855-2.549-2.855-4.853v-3.332c-0.052-2.262-0.723-3.639-2.012-4.13l0.967-2.702
				c1.832,0.512,3.209,1.349,4.131,2.51c0.921,1.162,1.387,2.685,1.396,4.568v3.086c0,2.078,0.83,3.117,2.488,3.117v3.485
				c-1.658,0-2.488,1.028-2.488,3.086v3.271c-0.071,3.604-1.914,5.912-5.527,6.925L147.203,84.192z"/>
		</g>
	</g>
</g>
</svg>
