<?xml version="1.0" encoding="utf-8"?>
<!-- Generator: Adobe Illustrator 16.0.0, SVG Export Plug-In . SVG Version: 6.00 Build 0)  -->
<!DOCTYPE svg PUBLIC "-//W3C//DTD SVG 1.1//EN" "http://www.w3.org/Graphics/SVG/1.1/DTD/svg11.dtd">
<svg version="1.1" id="Layer_1" xmlns="http://www.w3.org/2000/svg" xmlns:xlink="http://www.w3.org/1999/xlink" x="0px" y="0px"
	 width="773.961px" height="208px" viewBox="0 0 773.961 208" enable-background="new 0 0 773.961 208" xml:space="preserve">
<path fill="none" stroke="#FFFFFF" stroke-width="3" stroke-miterlimit="10" d="M150.808,90.904"/>
<path fill="none" stroke="#FFFFFF" stroke-width="3" stroke-miterlimit="10" d="M128.408,68.502"/>
<path fill="none" stroke="#FFFFFF" stroke-width="3" stroke-miterlimit="10" d="M144.217,97.495"/>
<path fill="none" stroke="#FFFFFF" stroke-width="3" stroke-miterlimit="10" d="M121.817,75.094"/>
<g>
	<g id="STATE_3_">
		<g>
			<path fill-rule="evenodd" clip-rule="evenodd" fill="#FFFFFF" d="M50.338,43.251h96.666v149.061h-41.666
				c0,0-74.041-33.475-74.666-34.475s-3.584-4.166-0.834-5.998c2.75-1.834,5.75-4.916,4.416-7.584
				c-1.332-2.666-3.498-10.332-2.332-11.75c1.166-1.416,5.25-12.582,5.25-12.582l7.25-6.916c0,0-9.334-16.918-9.334-18.5
				c0-1.584-2.834-26.335-2.834-27.585s5-1.834,6.168-2.084c1.166-0.25,4.25-0.5,4.916,0.334S50.338,43.251,50.338,43.251z"/>
			<path fill="#F68F71" d="M149.504,194.812h-44.705l-0.491-0.222c-0.185-0.084-18.728-8.468-37.108-16.867
				c-37.86-17.299-38.074-17.643-38.648-18.561c-0.062-0.1-0.159-0.227-0.27-0.379c-0.859-1.179-2.459-3.374-2.022-5.822
				c0.161-0.902,0.672-2.19,2.191-3.203c2.583-1.722,3.93-3.658,3.566-4.385c-0.053-0.106-4.814-11.066-2.027-14.456
				c0.634-0.909,3.012-6.873,4.833-11.853l0.2-0.548l6.28-5.99c-8.716-15.896-8.716-17.376-8.716-18.02
				c-0.021-0.893-0.892-8.936-1.528-14.808c-0.996-9.192-1.306-12.154-1.306-12.777c0-3.15,4.081-3.838,7.361-4.39
				c0.334-0.057,0.608-0.102,0.784-0.139c0.837-0.18,2.035-0.296,3.05-0.296c0.34,0,0.717,0.01,1.107,0.047
				c1.255-3.535,3.749-11.933,5.874-19.563l0.509-1.83h101.065V194.812z M105.877,189.812h38.627V45.751H52.236
				c-6.139,21.953-6.686,21.951-8.863,21.943l-1.199-0.003l-0.453-0.551c-0.161-0.021-0.411-0.043-0.772-0.043
				c-0.838,0-1.657,0.11-2.003,0.185c-0.225,0.048-0.575,0.108-1.001,0.181c-0.597,0.101-2.103,0.354-3.089,0.633
				c0.212,2.172,0.717,6.839,1.175,11.065c0.977,9.02,1.478,13.717,1.548,15.075c0.532,1.711,4.958,10.179,9.032,17.563l0.931,1.688
				l-8.223,7.844c-1.509,4.104-3.941,10.457-5.227,12.432c-0.174,1.52,1.217,7.01,2.399,9.376c1.707,3.413-0.261,7.444-5.265,10.781
				c-0.008,0.005-0.015,0.01-0.022,0.015c0.119,0.531,0.862,1.551,1.12,1.904c0.042,0.058,0.082,0.113,0.121,0.166
				C36.963,158.49,78.198,177.296,105.877,189.812z"/>
		</g>
		<g>
			<path fill-rule="evenodd" clip-rule="evenodd" fill="#FEDFC6" d="M107.063,184.312c-22.16-10.023-54.846-24.918-67.285-30.828
				c3.49-4.609,3.359-9.354,1.633-12.805c-0.535-1.072-1.398-3.945-1.707-5.697c0.898-1.803,2.236-4.912,4.334-10.551l10.367-9.893
				l-2.979-5.396c-3.369-6.105-7.322-13.605-8.422-16.145c-0.154-1.861-0.557-5.68-1.504-14.427
				c-0.189-1.742-0.395-3.637-0.584-5.396c0,0,2.482,0.02,2.502,0.02c6.301,0,7.59-2.691,12.994-21.943h82.592v133.062H107.063z"/>
		</g>
		<g>
			<path fill="none" stroke="#813D96" stroke-width="2" stroke-miterlimit="10" d="M96.68,107.255"/>
		</g>
		<g>
			<path fill="none" stroke="#813D96" stroke-width="2" stroke-miterlimit="10" d="M76.756,107.255"/>
		</g>
	</g>
	<g>
		<path fill="#FFFFFF" d="M459.688,46.752c0,0,35.767-5.023,38.051-5.781s11.989,0.775,13.012,1.363
			c1.024,0.587,8.018,3.288,10.739,4.141c2.723,0.853-1.917,5.646,0.648,5.241c2.566-0.407,4.581-1.428,13.352-1.652
			c8.773-0.225,14.167-6.6,19.92-6.24c5.752,0.357,11.287-1.041,11.991-3.03c0.706-1.991,11.671-15.239,16.327-16.053
			c4.655-0.814,16.916-13.733,17.692-8.85c1.882,11.837,7.276,58.794,7.276,58.794s-3.392,5.071-2.608,11.396
			c0.496,4.009,0.329,8.613-0.216,11.898c-0.544,3.284-2.168,15.14-1.937,17.014c0.232,1.873-2.881,9.393-5.196,11.82
			c-2.316,2.427-5.836,8.57-7.535,10.208c-1.701,1.637-3.661,1.166-5.622,0.696c-1.963-0.472-4.926,4.414-6.214,5.524
			c-1.29,1.111-4.078,7.402-3.904,8.809s-1.272,10.86-2.646,9.365c-1.375-1.496-4.123-4.485-5.939-3.784
			c-1.815,0.7-4.165,6.699-3.845,9.276c0.318,2.575-0.102,10.715-2.008,12.614c-1.904,1.901-9.872,4.79-13.471,3.571
			c-3.599-1.221-7.667-11.024-10.767-9.173s-17.012,6.664-20.64,4.26c-3.627-2.406-12.703-2.709-16.479-2.479
			s-8.165-2.557-8.368-4.196c-0.203-1.641-2.085-5.332-4.639-6.739c-2.554-1.408-5.716-0.064-9.141-0.83
			c-3.424-0.766-6.429,1.864-6.841-1.475C470.269,159.126,459.688,46.752,459.688,46.752z"/>
		<path fill="#F68F71" d="M549.651,185.885c-1.094,0-2.069-0.143-2.897-0.423c-2.28-0.773-4.094-3.133-6.014-5.63
			c-0.878-1.143-2.287-2.976-3.084-3.532c-3.14,1.671-12.579,5.039-18.413,5.04c-1.92,0-3.383-0.352-4.475-1.075
			c-1.918-1.272-7.035-2.127-12.735-2.127c-0.816,0-1.581,0.021-2.212,0.059c-0.197,0.013-0.396,0.019-0.597,0.019
			c-4.236,0-9.984-3.015-10.404-6.402c-0.114-0.93-1.58-3.875-3.364-4.857c-0.47-0.259-1.081-0.37-2.044-0.37
			c-0.471,0-0.955,0.024-1.45,0.048c-0.601,0.029-1.216,0.058-1.843,0.058c-1.182,0-2.181-0.101-3.143-0.315
			c-0.759-0.169-1.759-0.035-2.688,0.118c-0.624,0.104-1.269,0.21-1.914,0.21c-2.31,0-3.87-1.472-4.175-3.936
			c-0.412-3.332-10.568-111.191-11.001-115.781l-0.224-2.378l2.365-0.332c13.532-1.9,35.717-5.125,37.634-5.686
			c0.663-0.221,1.552-0.326,2.776-0.326c3.204,0,10.605,0.959,12.246,1.902c0.843,0.464,7.444,3.046,10.24,3.922
			c1.039,0.325,1.851,1.009,2.284,1.923c0.412,0.869,0.424,1.757,0.269,2.589c2.07-0.431,5.058-0.894,10.636-1.036
			c4.106-0.105,7.423-1.766,10.631-3.372c3.16-1.583,6.157-3.069,9.51-2.864c0.554,0.034,1.105,0.051,1.651,0.051
			c4.396,0,7.294-1.038,7.905-1.608c1.275-2.743,12.301-16.466,18.175-17.494c1.326-0.232,4.718-2.754,7.194-4.596
			c4.495-3.342,7.372-5.391,9.773-5.391c1.893,0,3.314,1.259,3.624,3.207c1.869,11.755,7.07,56.982,7.291,58.902l0.105,0.912
			l-0.511,0.763c-0.023,0.035-2.858,4.426-2.205,9.699c0.49,3.966,0.402,8.8-0.231,12.615c-0.689,4.163-2.056,14.785-1.92,16.312
			c0.363,2.927-3.379,11.228-5.869,13.839c-1.053,1.103-2.552,3.32-3.874,5.277c-1.462,2.163-2.726,4.031-3.735,5.005
			c-1.271,1.222-2.819,1.841-4.605,1.841c-1.031,0-2.019-0.203-2.914-0.413c-0.713,0.483-1.979,2.059-2.616,2.853
			c-0.701,0.872-1.255,1.562-1.804,2.034c-0.797,0.834-2.891,5.478-3.041,6.777c0.095,1.759-0.789,9.052-2.607,11.109
			c-0.6,0.679-1.392,1.053-2.231,1.054c-0.001,0-0.001,0-0.002,0c-0.808,0-1.567-0.344-2.142-0.969
			c-1.77-1.925-2.736-2.693-3.264-2.965c-0.979,1.232-2.383,4.979-2.199,6.457c0.157,1.269,0.465,11.517-2.724,14.693
			C560.723,183.359,554.252,185.884,549.651,185.885z M537.607,171.189c2.795,0,4.884,2.719,7.097,5.596
			c1.051,1.367,2.811,3.655,3.654,3.942c0.174,0.059,0.575,0.158,1.293,0.158c3.477-0.001,8.576-2.101,9.608-3.132
			c0.944-1.138,1.644-7.707,1.293-10.538c-0.417-3.358,2.157-10.654,5.427-11.915c0.468-0.181,0.968-0.272,1.484-0.272
			c1.7,0,3.316,0.993,4.808,2.305c0.41-1.9,0.746-4.252,0.707-5.03c-0.29-2.333,2.952-9.397,4.759-10.954
			c0.204-0.176,0.762-0.87,1.169-1.378c1.803-2.242,3.845-4.784,6.401-4.784c0.291,0,0.58,0.034,0.859,0.102
			c0.806,0.192,1.565,0.375,2.168,0.375c0.5,0,0.798-0.116,1.137-0.442c0.631-0.607,1.922-2.519,3.062-4.204
			c1.503-2.224,3.057-4.522,4.398-5.929c1.938-2.032,4.507-8.487,4.518-9.874c-0.317-2.533,1.727-16.247,1.957-17.642
			c0.552-3.325,0.631-7.715,0.201-11.184c-0.7-5.654,1.48-10.389,2.51-12.252c-0.704-6.101-5.072-43.804-6.94-56.387
			c-1.551,0.859-4.053,2.719-5.7,3.945c-4.245,3.156-6.99,5.102-9.317,5.509c-3.215,0.562-13.351,12.171-14.429,14.496
			c-1.573,4.452-10.699,4.681-12.513,4.681c-0.647,0-1.304-0.02-1.963-0.061c-0.106-0.007-0.212-0.01-0.316-0.01
			c-1.94,0-4.12,1.091-6.644,2.354c-3.351,1.678-7.521,3.766-12.74,3.899c-6.414,0.164-8.959,0.744-11.004,1.21
			c-0.68,0.155-1.321,0.302-2.021,0.412c-0.252,0.04-0.473,0.056-0.668,0.056c-1.055,0-1.975-0.467-2.524-1.279
			c-0.954-1.412-0.355-2.901,0.125-4.099c0.044-0.109,0.097-0.24,0.149-0.377c-3.008-1.035-8.537-3.151-9.979-3.914
			c-1.079-0.373-6.621-1.307-9.882-1.307c-0.924,0-1.228,0.08-1.24,0.084c-2.119,0.703-25.771,4.087-36.109,5.546
			c1.484,15.758,9.85,104.527,10.703,112.726c0.12-0.02,0.244-0.04,0.366-0.06c1.229-0.206,3.052-0.413,4.598-0.064
			c0.594,0.133,1.245,0.194,2.051,0.194c0.546,0,1.081-0.026,1.604-0.052c0.577-0.027,1.141-0.054,1.689-0.054
			c1.239,0,2.865,0.113,4.458,0.991c3.221,1.775,5.447,5.937,5.871,8.345c0.593,0.767,3.302,2.433,5.777,2.285
			c0.729-0.045,1.6-0.068,2.515-0.068c3.319,0,11.473,0.289,15.498,2.96c0.003,0.001,0.396,0.242,1.712,0.242
			c4.891-0.001,14.048-3.241,16.264-4.565C536.157,171.386,536.864,171.189,537.607,171.189z"/>
	</g>
	<g>
		<path fill="#FEDFC6" d="M550.579,177.71c-0.474,0.06-0.809,0.068-1.022,0.063c-0.641-0.611-1.714-2.004-2.389-2.884
			c-2.648-3.445-5.649-7.349-10.441-6.755c-0.994,0.122-1.94,0.449-2.813,0.97c-1.458,0.871-8.253,3.415-13.083,4.013
			c-1.119,0.139-1.757,0.121-2.048,0.096c-6.477-3.85-19.321-3.117-19.454-3.109c-0.868,0.052-2.11-0.462-2.816-0.906
			c-0.915-3.051-3.375-7.268-7.14-9.344c-2.826-1.558-5.699-1.42-7.798-1.32c-1.108,0.053-2.066,0.099-2.828-0.071
			c-1.053-0.235-2.024-0.297-2.86-0.282c-1.517-15.513-7.259-76.347-10.111-106.623c14.62-2.071,30.263-4.373,33.386-5.165
			c1.721-0.176,7.572,0.607,9.35,1.09c1.479,0.713,4.591,1.938,7.287,2.936c-0.184,1.383-0.019,3.025,1.18,4.582
			c1.323,1.721,3.482,2.577,5.773,2.293l0.266-0.037c0.804-0.126,1.526-0.292,2.227-0.451c1.057-0.241,2.148-0.489,3.879-0.704
			c1.801-0.222,3.932-0.363,6.514-0.429c0.782-0.021,1.574-0.079,2.354-0.176c4.789-0.593,8.619-2.511,11.699-4.052
			c1.901-0.952,3.699-1.854,4.927-2.005c0.165-0.021,0.311-0.027,0.446-0.018c2.095,0.129,4.271,0.066,6.29-0.184
			c4.185-0.518,9.464-2.021,11.202-6.222c1.604-2.736,9.548-11.598,12.348-12.79c2.938-0.585,5.922-2.687,10.429-6.038
			c0.433-0.32,0.933-0.692,1.459-1.078c1.977,14.685,5.276,43.044,6.13,50.427c-1.291,2.6-3.11,7.462-2.396,13.232
			c0.396,3.196,0.323,7.236-0.184,10.293c-0.022,0.14-2.164,13.792-2.012,18.042c-0.326,1.735-2.529,6.667-3.646,7.837
			c-1.521,1.595-3.149,4.002-4.724,6.331c-0.672,0.993-1.608,2.378-2.22,3.187c-0.28-0.06-0.596-0.135-0.845-0.194
			c-0.798-0.191-1.62-0.236-2.443-0.135c-3.589,0.444-6.015,3.465-7.966,5.891c-0.299,0.372-0.703,0.875-0.876,1.061
			c-2.276,2.082-5.869,9.391-5.745,13.208c-1.03-0.323-2.133-0.46-3.305-0.314c-0.583,0.071-1.156,0.215-1.7,0.425
			c-5.112,1.972-7.892,11.163-7.392,15.198c0.221,1.786-0.143,6.316-0.699,8.11C555.595,176.371,552.904,177.422,550.579,177.71z"/>
	</g>
	<g>
		<path fill="#FFFFFF" d="M574.672,48.628l23.923-11.898l-0.779,12.431l139.589,8.754c0,0,2.589,3.846,2.541,4.607
			c-0.048,0.766,5.301,1.255,5.301,1.255l3.805,2.539c0,0-3.031,3.185-2.705,4.739c0.327,1.554,4.436,10.557,5.563,10.628
			c1.128,0.07,4.695,4.128,2.173,5.966c-2.521,1.837-10.022,8.578-10.157,10.716c-0.134,2.14,2.071,7.648-0.734,9.467
			c-2.802,1.819-3.156,7.474-1.965,8.773c1.192,1.302,3.205,0.814,2.983,4.33c-0.22,3.516,2.803,7.234,2.31,10.579
			c-0.493,3.344,4.859,8.28,3.222,9.558c-1.636,1.279-13.665,5.743-13.396,8.215c0.271,2.47-4.786,1.846-6.789,2.181
			s-11.131,1.45-11.912,2.628c-0.784,1.179-148.998-9.343-148.998-9.343L574.672,48.628z"/>
		<path fill="#F68F71" d="M716.317,156.687c-14.685,0-142.419-9.056-147.85-9.44l-2.474-0.176l6.272-100.038l29.095-14.471
			l-0.895,14.26l138.323,8.675l0.688,1.021c1.381,2.052,2.127,3.375,2.526,4.27c0.826,0.181,2.204,0.384,3.469,0.5l0.632,0.058
			l6.806,4.541l-2.05,2.153c-0.856,0.903-1.759,2.152-1.999,2.744c0.534,1.671,3.128,7.184,4.223,8.648
			c1.813,0.737,3.573,2.975,4.147,4.945c0.613,2.102-0.015,4.08-1.678,5.292c-2.702,1.969-8.339,7.306-9.134,9.01
			c0.021,0.403,0.154,1.178,0.256,1.764c0.502,2.903,1.26,7.292-2.127,9.486c-1.324,0.86-1.681,4.029-1.375,5.068
			c0.114,0.073,0.288,0.166,0.437,0.245c1.739,0.925,3.318,2.273,3.093,5.85c-0.073,1.169,0.468,2.617,1.04,4.15
			c0.748,2.003,1.596,4.273,1.248,6.636c-0.12,0.81,1.047,2.782,1.744,3.96c1.303,2.202,3.087,5.219,0.541,7.205
			c-0.692,0.542-1.946,1.138-4.287,2.231c-2.119,0.99-6.914,3.23-8.144,4.434c-0.051,0.831-0.361,1.607-0.903,2.235
			c-1.479,1.711-4.091,1.806-6.395,1.889c-0.614,0.022-1.25,0.045-1.582,0.101c-0.347,0.058-0.901,0.139-1.588,0.239
			c-5.022,0.731-8.052,1.317-9.015,1.742C718.567,156.687,717.47,156.687,716.317,156.687z M571.295,142.434
			c18.277,1.29,131.622,9.253,145.022,9.253c0.124,0,0.237,0,0.339-0.001c1.401-0.833,4.229-1.476,11.002-2.462
			c0.642-0.093,1.16-0.168,1.484-0.223c0.651-0.109,1.416-0.137,2.226-0.166c0.635-0.022,1.803-0.065,2.513-0.197
			c0.464-2.829,4.602-4.907,10.993-7.894c0.757-0.354,1.621-0.757,2.291-1.088c-0.229-0.421-0.511-0.897-0.732-1.272
			c-1.231-2.082-2.765-4.674-2.388-7.235c0.161-1.089-0.396-2.579-0.984-4.157c-0.697-1.865-1.486-3.979-1.347-6.213
			c0.033-0.521-0.01-0.785-0.035-0.89c-0.097-0.063-0.276-0.158-0.414-0.231c-0.521-0.277-1.234-0.656-1.883-1.364
			c-1.541-1.682-1.353-4.656-1.2-5.857c0.382-3.002,1.711-5.444,3.647-6.701c0.618-0.401,0.111-3.336-0.079-4.44
			c-0.202-1.17-0.377-2.18-0.32-3.086c0.243-3.864,9.606-11.351,11.007-12.445c-0.146-0.519-0.815-1.41-1.247-1.706
			c-3.622-1.3-7.266-12.37-7.29-12.487c-0.318-1.518,0.419-3.199,1.466-4.708l-0.982-0.655c-3.721-0.368-6.728-0.963-6.929-3.36
			c-0.204-0.46-0.787-1.463-1.456-2.515L595.164,51.5l0.664-10.602l-18.751,9.326L571.295,142.434z"/>
	</g>
	<g>
		<path fill="#FEDFC6" d="M679.01,146.697c-36.584-2.294-88.693-5.943-104.946-7.088l5.477-87.361l13.402-6.666l-0.549,8.761
			l142.201,8.919c0.138,0.229,0.257,0.439,0.355,0.615c0.568,3.28,3.603,4.466,6.549,4.991c-0.311,1.192-0.347,2.348-0.114,3.463
			c0.435,2.063,2.532,6.382,2.949,7.227c1.263,2.564,2.396,4.688,3.8,6.041c-3.596,3.066-9.026,8.344-9.284,12.447
			c-0.082,1.313,0.135,2.563,0.363,3.89c0.091,0.53,0.236,1.377,0.298,2.018c-2.086,1.858-3.483,4.766-3.9,8.187
			c-0.201,1.646-0.408,5.753,1.985,8.365c0.514,0.564,1.046,0.98,1.521,1.293c0.087,2.47,0.897,4.64,1.564,6.432
			c0.31,0.825,0.771,2.064,0.803,2.545c-0.394,2.84,0.631,5.401,1.762,7.511c-5.07,2.373-9.316,4.455-11.1,7.51
			c-0.299,0.015-0.587,0.024-0.81,0.033c-0.882,0.031-1.715,0.062-2.509,0.194c-0.314,0.052-0.815,0.125-1.436,0.216
			c-5.903,0.857-9.194,1.468-11.247,2.443C713.699,148.667,705.582,148.363,679.01,146.697z"/>
	</g>
	<g>
		<path fill="#FFFFFF" d="M151.117,90.818c-2.608,0.91-6.554,0.941-9.132,1.002c-17.464,0.41-21.599-8.756-31.092-7.051
			c-1.298,0.232-5.691,8.586,4.836,22.902c1.921,2.611,5.091,21.124,9.802,22.266s6.302,6.606,3.789,7.878
			c-2.513,1.271,4.941,6.093,3.794,7.545c-1.146,1.453-7.822,10.147-1.451,13.805c2.144,1.23,10.756-3.548,11.728,5.303
			c0.863,7.867,13.945-4.14,18.505,13.229c1.726,6.574,13.763,7.777,23.193,2.762c4.239-2.256,13.549-5.081,16.145-4.037
			c12.84,5.168,16.894-3.239,20.5-3.635c3.605-0.396,15.81-2.398,25.287-11.4c1.674-1.589,51.499-5.319,61.12-11.351
			c2.015-1.264-2.673-5.966-3.078-12.933c-0.199-3.428-12.472-95.498-12.472-95.498l-139.309,15.29c0,0-5.818,0.639,5.92,11.625
			c5.051,5.416-4.628,8.801-0.629,10.685c3.999,1.883,9.556,13.216,9.808,15.51c0.252,2.295,4.28,18.302,3.704,21.671
			c-1.932,11.309-9.814,1.155-10.885-2.56c-1.072-3.714,6.291-10.389-0.405-14.381C159.453,98.645,161.581,87.167,151.117,90.818z"
			/>
		<path fill="#F68F71" d="M172.925,186.05c-7.044,0-12.197-2.958-13.447-7.719c-2.187-8.33-6.227-8.33-9.176-8.33
			c-0.424,0-0.84,0.009-1.244,0.018c-0.414,0.009-0.816,0.017-1.204,0.017c-1.742,0-6.367,0-6.948-5.296
			c-0.335-3.049-1.544-3.285-3.215-3.285c-0.817,0-1.698,0.113-2.55,0.223c-0.828,0.105-1.609,0.206-2.345,0.206
			c-0.955,0-1.733-0.181-2.378-0.551c-2.082-1.195-3.405-2.978-3.826-5.155c-0.783-4.049,1.727-8.498,3.761-11.31
			c-0.326-0.389-0.748-0.849-1.072-1.201c-1.702-1.852-3.309-3.601-2.929-5.692c0.176-0.97,0.759-1.775,1.65-2.288
			c0.018-0.225-0.041-0.692-0.345-1.261c-0.258-0.483-1.04-1.652-2.716-2.059c-4.191-1.016-6.462-7.743-9.211-17.135
			c-0.709-2.422-1.591-5.436-2.025-6.093c-9.526-12.955-7.338-21.301-6.441-23.55c0.532-1.331,1.516-2.981,3.188-3.281
			c0.926-0.166,1.856-0.251,2.763-0.251c3.807,0,6.918,1.45,10.213,2.985c4.5,2.098,9.641,4.475,18.498,4.278l0.494-0.012
			c2.309-0.051,5.798-0.128,7.873-0.852c1.648-0.575,3.103-0.854,4.447-0.854c6.668,0,7.547,6.512,7.923,9.292
			c0.037,0.27,0.081,0.597,0.124,0.862c5.242,3.676,3.01,9.148,1.787,12.146c-0.417,1.022-1.115,2.734-0.972,3.229
			c0.614,2.129,3.686,5.814,4.923,5.938c0.148-0.146,0.708-0.83,1.096-3.106c0.321-1.875-1.762-11.502-2.652-15.613
			c-0.646-2.984-0.987-4.578-1.073-5.364c-0.314-2.084-5.549-12.185-8.388-13.521c-1.587-0.747-2.145-1.832-2.334-2.611
			c-0.444-1.833,0.653-3.263,1.621-4.523c1.615-2.104,1.862-2.706,0.632-4.048c-6.447-6.046-8.874-10.092-7.868-13.112
			c0.608-1.825,2.238-2.629,3.449-2.762l141.737-15.557l0.323,2.422c0.501,3.763,12.287,92.202,12.489,95.683
			c0.178,3.064,1.334,5.69,2.264,7.801c1.103,2.505,2.476,5.621-0.354,7.396c-6.221,3.899-25.584,6.607-46.582,9.265
			c-6.303,0.798-12.809,1.621-14.464,2.081c-10.044,9.331-22.735,11.368-26.417,11.772c-0.368,0.041-1.396,0.768-2.146,1.298
			c-2.267,1.604-5.692,4.026-10.954,4.026c-2.651,0-5.545-0.624-8.604-1.854c0.009-0.002-0.166-0.044-0.616-0.044
			c-3.213,0-10.066,2.182-13.423,3.968C182.16,184.848,177.423,186.05,172.925,186.05z M150.302,165.001
			c5.05,0,11.206,1.371,14.012,12.061c0.636,2.423,4.016,3.988,8.611,3.988c3.693,0,7.596-0.994,10.99-2.799
			c4.039-2.149,11.642-4.554,15.771-4.554c0.993,0,1.804,0.132,2.48,0.404c2.463,0.991,4.73,1.494,6.739,1.494
			c3.673,0,6.007-1.651,8.067-3.108c1.458-1.031,2.835-2.005,4.488-2.187c3.327-0.365,14.878-2.217,23.837-10.728
			c1.068-1.014,2.653-1.306,16.96-3.115c13.85-1.753,36.616-4.634,43.674-8.06c-0.186-0.49-0.461-1.116-0.686-1.625
			c-1.034-2.348-2.449-5.562-2.679-9.526c-0.154-2.653-8.517-65.753-12.131-92.891l-135.87,14.912
			c0.468,1.025,1.909,3.273,6.345,7.426l0.12,0.12c4.299,4.609,1.098,8.78-0.269,10.561c-0.041,0.053-0.083,0.107-0.126,0.165
			c4.847,3.434,9.936,14.217,10.23,16.901c0.062,0.564,0.533,2.744,0.989,4.852c1.8,8.32,3.142,14.894,2.694,17.514
			c-1.026,6.006-3.809,7.267-5.963,7.267c-4.64,0-8.965-6.697-9.789-9.556c-0.624-2.162,0.276-4.369,1.147-6.503
			c1.616-3.963,1.734-5.133-0.43-6.423c-1.373-0.818-1.574-2.307-1.806-4.028c-0.526-3.895-1.164-4.961-2.968-4.961
			c-0.763,0-1.705,0.193-2.8,0.575c-2.821,0.984-6.629,1.068-9.41,1.13l-0.487,0.011c-10.056,0.236-15.989-2.536-20.727-4.744
			c-3.018-1.406-5.401-2.518-8.101-2.518c-0.395,0-0.787,0.023-1.187,0.069c-0.957,1.789-2.084,8.459,5.714,19.063
			c0.873,1.187,1.556,3.435,2.786,7.637c1.124,3.839,3.755,12.828,5.639,13.696c4.187,1.011,6.466,4.51,6.792,7.326
			c0.188,1.62-0.241,3.091-1.15,4.138c0.365,0.438,0.822,0.937,1.153,1.296c1.76,1.916,3.951,4.3,2.114,6.626
			c-2.528,3.206-3.932,6.473-3.574,8.32c0.091,0.472,0.315,1.077,1.217,1.653c0.025,0.001,0.053,0.002,0.077,0.001
			c0.417,0,1.044-0.081,1.71-0.166c0.96-0.123,2.049-0.263,3.185-0.263c4.799,0,7.629,2.677,8.185,7.74
			c0.054,0.49,0.161,0.642,0.162,0.644c0.054,0.035,0.389,0.197,1.816,0.197c0.354,0,0.721-0.008,1.1-0.016
			C149.392,165.011,149.842,165.001,150.302,165.001z"/>
	</g>
	<g>
		<path fill="#FEDFC6" d="M174.878,177.441c-4.33,0.476-6.89-0.716-7.18-1.27c-3.912-14.902-14.28-14.744-18.765-14.651
			c-1.039-3.979-4.171-9.4-13.57-8.43c0.418-1.003,1.187-2.398,2.462-4.015c3.342-4.233,0.082-8.51-1.77-10.593
			c0.408-1.235,0.547-2.604,0.381-4.035c-0.521-4.503-3.895-8.478-8.373-10.015c-1.396-2.092-3.251-8.431-4.176-11.59
			c-1.382-4.72-2.101-7.062-3.326-8.728c-4.552-6.19-5.662-10.787-5.697-13.357c1.332,0.313,2.825,0.988,4.973,1.988
			c4.823,2.248,11.428,5.327,22.288,5.071l0.486-0.01c1.594-0.035,3.578-0.08,5.594-0.302c1.917-0.21,3.516-0.545,4.887-1.023
			c0.339-0.118,0.621-0.2,0.852-0.257c0.132,0.606,0.233,1.358,0.293,1.805c0.257,1.899,0.641,4.748,3.289,6.447
			c-0.188,0.652-0.57,1.59-0.825,2.215c-0.994,2.436-2.23,5.467-1.269,8.797c1.117,3.872,6.752,12.838,14.07,12.034
			c2.574-0.282,7.101-1.974,8.494-10.129c0.511-2.99-0.426-8.229-2.722-18.84c-0.385-1.778-0.864-3.991-0.936-4.528
			c-0.298-2.718-4.218-11.82-9.128-17.07c2.457-4.529,1.916-8.734-1.622-12.529l-0.139-0.148l-0.149-0.14
			c-0.821-0.769-1.524-1.459-2.125-2.075l126.239-13.854c4.829,36.272,11.425,86.265,11.658,89.28
			c0.207,3.569,1.251,6.608,2.211,8.935c-8.997,2.705-29.014,5.238-39.461,6.561c-15.492,1.961-16.981,2.195-18.936,4.051
			c-8.376,7.956-19.638,9.549-21.81,9.787c-2.553,0.28-4.451,1.623-6.127,2.808c-1.663,1.176-3.1,2.192-5.157,2.418
			c-1.75,0.192-3.876-0.209-6.32-1.192c-1.565-0.63-3.403-0.802-5.783-0.54c-4.912,0.539-11.829,2.935-15.42,4.845
			C179.996,176.372,177.439,177.16,174.878,177.441z"/>
	</g>
	<g>
		<g>
			<path fill="#FFFFFF" d="M400.086,21.908l61.181-1.562c0,0,4.185,0.252,0,5.467c-2.032,2.533,5.989,5.467,6.249,6.769
				c0.261,1.302,1.302,8.07,1.563,9.893c0.26,1.822,2.604,78.106,2.604,78.106s0.78,4.165,0,5.727
				c-0.781,1.563,2.343,17.704-1.042,19.266c-3.384,1.562-4.946,7.29-6.248,7.551c-1.303,0.26-0.26,5.987-1.303,7.551
				c-1.041,1.562-3.384,10.413-3.384,11.716c0,1.3,3.384,6.247,0.521,6.247s-9.431,2.344-9.141,3.905
				c0.29,1.563-0.231,10.675-4.656,8.592c-4.427-2.082-8.545-1.988-10.26,0.308c-1.718,2.296-8.403,4.118-8.705,1.255
				c-0.302-2.864-2.645-7.551-1.604-9.113c1.041-1.562,0.781-9.112-1.041-10.414c-1.824-1.302-7.812-7.55-10.154-8.33
				c-2.343-0.781-12.757-8.071-11.455-11.716c1.301-3.645,7.604-14.846,5.364-16.405c-2.241-1.559-7.447-4.163-8.488-2.079
				c-1.042,2.082-7.415-9.634-7.353-11.977c0.062-2.344-12.434-9.633-13.477-13.538c-1.041-3.906-3.502-17.639-2.271-19.104
				s9.302-9.014,10.083-11.618c0.78-2.604,2.604-13.746,1.041-15.595c-1.562-1.849-1.822-8.357,2.343-8.357
				s10.414-3.645,12.758-5.467c2.343-1.822,7.084-9.113,5.364-13.017c-1.719-3.906-3.519-8.279-6.382-8.539
				C399.329,27.169,398.777,21.942,400.086,21.908z"/>
			<path fill="#F68F71" d="M429.801,196.666c-3.271,0-4.643-1.996-4.823-3.706c-0.09-0.851-0.469-2.103-0.835-3.313
				c-0.842-2.785-1.639-5.418-0.419-7.361c0.477-1.25,0.243-6-0.495-7.182c-0.75-0.561-1.818-1.546-3.151-2.775
				c-1.666-1.536-5.132-4.734-6.204-5.117c-2.55-0.851-10.443-6.316-12.602-10.751c-0.729-1.501-0.87-2.906-0.416-4.177
				c0.388-1.086,1.111-2.64,1.95-4.439c1.17-2.512,3.502-7.518,3.733-9.473c-1.608-1.006-3.589-1.861-4.631-1.99
				c-0.545,0.633-1.329,1.006-2.174,1.006c-1.279,0-2.208-0.802-2.795-1.405c-2.203-2.262-6.301-9.605-6.679-12.861
				c-0.644-0.871-3.131-2.861-4.81-4.205c-4.738-3.792-7.897-6.477-8.609-9.145c-0.048-0.18-4.432-18.189-1.771-21.357
				c0.363-0.433,1.04-1.121,2.205-2.302c1.881-1.905,6.875-6.966,7.401-8.439c0.891-2.973,1.983-11.572,1.389-13.415
				c-1.649-2.14-2.008-6.265-0.748-8.978c0.982-2.115,2.854-3.328,5.134-3.328c3.242,0,8.942-3.167,11.224-4.94
				c2.005-1.56,5.62-7.744,4.61-10.035l-0.215-0.489c-0.989-2.255-2.83-6.452-4.104-6.567c-3.624-0.33-5.135-4.177-5.05-6.803
				c0.082-2.508,1.617-3.669,3.104-3.708l61.289-1.564l0.107,0.006c1.298,0.078,3.088,0.787,3.859,2.528
				c1.053,2.375-0.503,4.934-1.528,6.316c0.684,0.607,1.987,1.423,2.692,1.864c1.941,1.214,3.224,2.016,3.527,3.535
				c0.277,1.388,1.341,8.322,1.585,10.027c0.265,1.857,2.217,65.01,2.622,78.196c0.272,1.528,0.699,4.765-0.119,6.801
				c-0.047,0.708,0.122,2.757,0.261,4.423c0.726,8.78,0.936,14.659-2.63,16.304c-1.285,0.593-2.455,2.649-3.31,4.151
				c-0.713,1.254-1.323,2.325-2.173,2.978c-0.044,0.51-0.058,1.249-0.067,1.791c-0.037,2.034-0.072,3.955-0.968,5.299
				c-0.74,1.221-2.707,8.471-2.945,10.203c0.096,0.275,0.307,0.768,0.454,1.112c0.872,2.034,1.86,4.34,0.616,6.227
				c-0.377,0.572-1.278,1.533-3.068,1.533c-1.731,0-5.269,1.188-6.593,2.027c0.063,2.178-0.289,6.544-2.312,8.977
				c-1.237,1.488-2.673,1.801-3.66,1.801h-0.001c-0.754,0-1.526-0.184-2.296-0.546c-1.719-0.808-3.435-1.253-4.833-1.253
				c-0.659,0-1.843,0.104-2.359,0.795C436.449,195.241,432.485,196.665,429.801,196.666z M428.092,184.714
				c-0.014,0.673,0.515,2.419,0.837,3.484c0.352,1.16,0.712,2.353,0.91,3.466c1.638-0.017,3.848-1.076,4.328-1.72
				c1.349-1.806,3.609-2.801,6.364-2.801c2.149,0,4.557,0.598,6.962,1.729c0.015,0.008,0.029,0.014,0.042,0.02
				c0.791-0.944,1.273-4.682,1.09-5.906c-0.1-0.535-0.133-1.624,0.793-2.737c1.561-1.878,5.941-3.463,9.06-3.953
				c-0.139-0.347-0.286-0.691-0.396-0.947c-0.49-1.143-0.877-2.046-0.877-2.957c0-1.768,2.395-10.817,3.741-13.005
				c0.15-0.471,0.176-1.868,0.191-2.713c0.042-2.324,0.09-4.929,2.084-5.791c0.221-0.324,0.553-0.908,0.809-1.358
				c1.148-2.019,2.707-4.757,5.28-6.083c0.834-1.676,0.268-8.519,0.022-11.488c-0.353-4.261-0.438-5.662,0.112-6.763
				c0.179-0.503,0.08-2.539-0.221-4.148l-0.042-0.383c-0.927-30.172-2.381-75.813-2.586-77.883c-0.23-1.605-1.061-7.006-1.419-9.079
				c-0.36-0.257-0.936-0.616-1.389-0.899c-2.29-1.433-4.887-3.056-5.298-5.481c-0.184-1.085,0.109-2.175,0.825-3.068
				c0.468-0.583,0.769-1.037,0.963-1.377l-58.16,1.484c0.107,0.286,0.243,0.525,0.372,0.606c4.143,0.36,6.276,5.224,8.159,9.516
				l0.212,0.483c2.396,5.437-3.271,13.783-6.117,15.997c-2.516,1.955-9.318,5.993-14.293,5.993c-0.259,0-0.392,0.017-0.578,0.391
				c-0.579,1.166-0.25,3.332,0.15,3.86c2.949,3.488-0.521,17.781-0.562,17.919c-0.642,2.139-3.408,5.215-8.628,10.503
				c-0.66,0.669-1.293,1.311-1.668,1.71c-0.298,2.467,1.388,12.954,2.506,17.147c0.372,1.304,4.62,4.703,6.902,6.53
				c4.609,3.688,6.672,5.435,6.658,7.646c0.187,1.426,2.893,6.739,4.602,9.043c0.544-0.221,1.159-0.336,1.826-0.336
				c3.551,0,8.146,3.167,8.341,3.302c3.204,2.231,1.075,7.264-2.664,15.289c-0.723,1.552-1.407,3.021-1.734,3.901
				c0.268,2.142,7.704,7.896,9.853,8.611c1.898,0.633,4.518,2.963,8.012,6.186c1.132,1.044,2.303,2.124,2.804,2.481
				C429.441,173.4,429.51,182.016,428.092,184.714z"/>
		</g>
		<g>
			<path fill="#FEDFC6" d="M432.188,186.883c-0.178-0.589-0.386-1.294-0.504-1.797c1.493-4.68,0.994-13.676-3.377-16.798
				c-0.372-0.276-1.582-1.393-2.466-2.208c-3.988-3.679-6.615-5.996-9.149-6.888c-1.629-0.74-5.565-3.722-7.177-5.601
				c0.297-0.658,0.649-1.415,0.996-2.158c3.74-8.03,7.273-15.614,1.491-19.639c-0.945-0.658-5.878-3.931-10.341-3.931
				c-0.048,0-0.095,0-0.143,0.001c-1.146-1.921-2.438-4.482-2.799-5.69c-0.232-3.714-3.356-6.214-7.957-9.896
				c-1.745-1.396-4.914-3.932-5.819-5.131c-0.918-3.671-2.134-11.181-2.287-14.386c0.223-0.227,0.455-0.461,0.67-0.68
				c5.864-5.941,8.626-9.077,9.489-11.955c0.044-0.146,3.817-13.841,0.663-19.995c5.598-1.11,11.379-4.828,13.414-6.411
				c3.405-2.647,10.536-12.535,7.173-20.172l-0.211-0.479c-0.773-1.764-1.615-3.682-2.665-5.443l43.748-1.117
				c-0.01,0.46,0.023,0.926,0.103,1.392c0.674,3.974,4.269,6.222,6.894,7.863c0.014,0.009,0.029,0.018,0.044,0.027
				c0.376,2.328,0.922,5.879,1.14,7.383c0.242,3.498,1.662,48.141,2.567,77.591l0.015,0.464l0.085,0.456
				c0.156,0.854,0.263,2.014,0.245,2.594c-0.69,1.844-0.519,3.922-0.185,7.962c0.178,2.143,0.56,6.756,0.348,9.028
				c-2.564,1.883-4.111,4.603-5.204,6.522c-0.085,0.151-0.183,0.322-0.278,0.487c-2.958,2.083-3.035,6.31-3.072,8.33
				c-0.009,0.479-0.021,1.217-0.058,1.666c-1.707,3.513-3.875,11.896-3.875,14.115c0,0.508,0.058,0.99,0.153,1.455
				c-2.769,0.9-5.579,2.297-7.132,4.165c-1.313,1.579-1.869,3.492-1.577,5.41c0.012,0.235,0.005,0.536-0.018,0.863
				c-1.578-0.423-3.13-0.641-4.601-0.641C437.136,183.644,434.222,184.785,432.188,186.883z"/>
		</g>
	</g>
	<g>
		<path fill="#FFFFFF" d="M315.268,23.047c-2.967,0-27.578,0.65-28.72,1.334c-1.141,0.685-0.727,5.057-0.727,8.709
			s-1.598,19.859,0,22.599c1.599,2.739,3.881,10.043,3.881,14.608c0,4.566-0.229,13.697,1.142,16.437
			c1.369,2.739,3.424,16.663,2.055,19.63c-1.37,2.968-10.184,4.018,0.456,13.924c3.817,3.554,0.228,39.49,0.913,41.773
			c0.685,2.282-1.826,10.044,2.739,10.5c4.564,0.457,99.295-1.267,99.295-1.267s3.653-10.832,0-13.343
			c-3.651-2.511-29.218-22.598-30.358-25.108c-1.142-2.511-1.598-14.381-0.229-17.12s8.446-9.131,8.446-10.729
			c0-1.599,2.511-15.295,3.88-16.892c1.37-1.598,12.327-14.609,15.75-15.979c3.425-1.37,26.937-15.979,27.621-17.806
			c0.685-1.826,1.369-6.848-3.881-6.391c-5.25,0.456-15.294,1.369-17.348-0.229c-2.055-1.598-3.653-3.652-7.989-1.826
			c-4.338,1.826-12.783-0.457-15.522-1.826c-2.739-1.37-7.761-9.359-11.413-9.359s-13.696,1.37-13.696,1.37
			s-2.055-3.652-6.163-3.425c-4.109,0.229-9.815,1.143-9.815-0.455c0-1.599-0.229-7.534-1.37-9.131s-7.761-7.945-9.814-7.989
			C315.882,14.873,315.268,23.047,315.268,23.047z"/>
		<path fill="#F68F71" d="M302.02,175.138c-3.871,0-4.845-0.048-5.262-0.09c-5.61-0.561-5.167-6.918-4.954-9.974
			c0.055-0.785,0.138-1.971,0.062-2.322c-0.297-0.988-0.238-2.899,0.15-10.632c0.409-8.151,1.363-27.189-0.436-30.069
			c-4.146-3.877-6.022-7.014-5.903-9.868c0.124-2.96,2.301-4.671,3.742-5.804c0.432-0.339,1.084-0.852,1.22-1.082
			c0.877-2.173-0.803-14.99-2.031-17.445c-1.367-2.733-1.448-8.78-1.412-15.816l0.006-1.738c0-4.02-2.142-10.953-3.54-13.349
			c-1.329-2.277-1.245-7.956-0.578-19.047c0.127-2.11,0.237-3.934,0.237-4.812c0-0.759-0.019-1.549-0.037-2.33
			c-0.097-4.2-0.167-7.235,1.976-8.522c1.852-1.11,21.467-1.547,27.946-1.66c1.056-3.579,4.122-8.023,10.91-8.023l0.337,0.003
			c3.835,0.083,11.377,8.452,11.794,9.035c1.361,1.906,1.716,6.456,1.806,9.005c0.079,0.001,0.163,0.002,0.253,0.002
			c1.14,0,2.647-0.127,4.104-0.25c0.976-0.082,1.95-0.164,2.849-0.214c3.445-0.202,5.97,1.588,7.435,3.25
			c2.971-0.385,9.613-1.199,12.563-1.199c3.329,0,6.332,3.266,9.236,6.425c1.114,1.212,2.641,2.871,3.295,3.198
			c1.833,0.916,6.545,2.242,10.27,2.242c1.319,0,2.413-0.167,3.165-0.483c1.457-0.614,2.774-0.913,4.026-0.913
			c2.739,0,4.438,1.403,5.802,2.53c0.2,0.165,0.4,0.331,0.606,0.493c0.191,0.083,1.172,0.424,4.488,0.424
			c3.51,0,7.911-0.383,10.824-0.637l0.343-0.029c3.441-0.3,5.128,1.166,5.963,2.37c2.047,2.954,0.643,6.943,0.476,7.389
			c-0.325,0.868-0.771,2.058-13.785,10.308c-6.037,3.827-13.213,8.127-15.248,8.941c-0.272,0.108-2.987,1.45-14.454,14.902
			l-0.254,0.297c-1.027,1.873-3.294,13.518-3.351,15.366c0,1.727-1.453,3.399-4.739,7.019c-1.553,1.71-3.484,3.839-3.971,4.812
			c-0.958,1.935-0.613,12.694,0.226,14.866c2.177,2.93,25.723,21.559,29.541,24.185c4.834,3.321,1.951,13.24,0.953,16.201
			l-0.563,1.669l-1.76,0.032C395.608,173.807,322.235,175.138,302.02,175.138z M297.05,170.032c0.002,0,0.061,0.027,0.206,0.042
			c0.152,0.015,0.943,0.064,4.764,0.064c18.384,0,80.928-1.104,92.421-1.311c1.172-4.284,1.277-8.244,0.445-8.815
			c-2.046-1.407-29.585-22.54-31.219-26.135c-1.356-2.983-1.973-15.701-0.188-19.272c0.794-1.588,2.712-3.7,4.742-5.936
			c1.222-1.346,3.038-3.347,3.479-4.128c0.31-2.743,2.456-15.747,4.444-18.065l0.316-0.372c12.6-14.779,15.362-15.885,16.402-16.301
			c3.126-1.25,23.574-14.012,26.313-16.677c0.268-0.933,0.276-2.062-0.008-2.471c-0.16-0.231-0.744-0.257-0.988-0.257
			c-0.137,0-0.279,0.007-0.431,0.02l-0.343,0.03c-2.999,0.261-7.53,0.655-11.258,0.655c-3.967,0-6.209-0.428-7.499-1.431
			c-0.265-0.206-0.522-0.419-0.779-0.631c-1.133-0.936-1.717-1.386-2.618-1.386c-0.564,0-1.267,0.176-2.086,0.521
			c-1.38,0.581-3.098,0.876-5.105,0.876c-4.751,0-10.271-1.652-12.506-2.77c-1.477-0.739-2.988-2.383-4.739-4.287
			c-1.435-1.561-4.421-4.809-5.556-4.809c-3.441,0-13.26,1.334-13.358,1.348l-1.684,0.229l-0.833-1.481
			c-0.041-0.067-1.387-2.289-3.846-2.154c-0.854,0.047-1.779,0.126-2.706,0.204c-1.561,0.131-3.174,0.268-4.524,0.268
			c-4.317,0-5.223-1.861-5.223-3.423c0-2.768-0.413-6.824-0.925-7.709c-1.079-1.508-6.374-6.328-7.972-6.914l-0.071,0
			c-5.56,0-6.271,4.746-6.357,5.698l-0.206,2.274l-2.286,0.02c-3.705,0-22.162,0.548-26.958,1.051
			c-0.097,1.037-0.056,2.79-0.027,4.046c0.019,0.82,0.038,1.649,0.038,2.446c0,1.028-0.108,2.83-0.246,5.112
			c-0.26,4.32-0.869,14.437-0.067,16.28c1.652,2.826,4.193,10.624,4.193,15.814l-0.006,1.765c-0.018,3.49-0.061,11.665,0.884,13.554
			c1.458,2.916,3.969,17.723,2.089,21.796c-0.586,1.269-1.688,2.135-2.661,2.899c-1.092,0.858-1.81,1.467-1.836,2.081
			c-0.019,0.447,0.242,2.208,4.386,6.065c2.967,2.762,2.993,13.137,1.951,33.914c-0.192,3.826-0.409,8.153-0.31,9.104
			c0.292,1.097,0.199,2.422,0.093,3.946C296.714,166.543,296.506,169.521,297.05,170.032L297.05,170.032z"/>
	</g>
	<g>
		<path fill="#FEDFC6" d="M300.222,166.633c0.02-0.357,0.043-0.699,0.063-0.968c0.112-1.62,0.22-3.162-0.105-4.686
			c-0.035-1.235,0.156-5.047,0.326-8.434c1.302-25.955,0.7-33.147-3.063-36.65c-1.402-1.306-2.223-2.255-2.698-2.891
			c1.147-0.903,2.683-2.137,3.602-4.127c2.509-5.436-0.469-21.223-2.069-24.69c-0.634-1.943-0.595-9.317-0.581-12.108l0.007-1.782
			c0-5.252-2.275-13.131-4.416-17.127c-0.454-2.509,0.06-11.042,0.283-14.758c0.141-2.34,0.252-4.188,0.252-5.322
			c0-0.823-0.02-1.68-0.039-2.527c-0.005-0.221-0.011-0.462-0.016-0.713c6.917-0.407,20.632-0.803,23.501-0.803h5.813l0.169-5.504
			c0.247-1.845,1.25-2.322,2.088-2.446c1.565,1.059,4.521,3.769,5.719,5.115c0.293,1.231,0.528,4.113,0.528,5.966
			c0,1.156,0.421,6.923,8.724,6.923c1.497,0,3.185-0.143,4.817-0.28c0.894-0.075,1.784-0.151,2.607-0.196h0.001
			c0.223,0,0.598,0.372,0.6,0.375l2,3.555l4.04-0.551c3.402-0.464,9.357-1.177,12.168-1.298c0.982,0.708,2.716,2.593,3.697,3.66
			c1.984,2.158,3.698,4.021,5.75,5.048c3.046,1.522,9.012,3.14,14.072,3.14c2.476,0,4.65-0.387,6.462-1.149
			c0.201-0.085,0.36-0.142,0.479-0.178c0.195,0.148,0.439,0.351,0.638,0.515c0.283,0.233,0.568,0.468,0.861,0.695
			c1.979,1.54,4.773,2.168,9.646,2.168c1.687,0,3.514-0.076,5.292-0.184c-6.784,4.53-17.556,11.146-19.896,12.142
			c-1.59,0.636-4.586,1.834-17.746,17.271l-0.311,0.363c-2.635,3.073-4.512,14.504-5.116,18.993
			c-0.631,0.802-1.868,2.165-2.741,3.126c-2.657,2.928-4.34,4.841-5.281,6.725c-2.303,4.607-1.596,18.482,0.134,22.286
			c0.658,1.448,1.339,2.947,15.929,14.737c5.829,4.711,12.532,9.946,15.521,12.138c0.037,0.752-0.081,1.903-0.31,3.176
			c-16.436,0.291-72.404,1.261-89.603,1.261C301.317,166.638,300.724,166.636,300.222,166.633z"/>
	</g>
</g>
<g>
	<g>
		<path fill="#813D96" d="M57.388,146.289l1.422-0.205l6.057-17.309h4.088l6.016,17.309l1.422,0.205v2.393h-6.781v-2.393
			l1.381-0.246l-0.875-2.734h-6.453l-0.875,2.734l1.381,0.246v2.393h-6.781V146.289z M64.607,140.369h4.566l-2.242-7.014h-0.082
			L64.607,140.369z"/>
	</g>
	<g>
		<path fill="#813D96" d="M92.566,128.775v1.996l-9.748,14.848h6.932l0.328-2.406h3.035l-0.301,5.469H77.951v-2.078l9.707-14.752
			h-6.33l-0.314,2.406h-3.049l0.301-5.482H92.566z"/>
	</g>
</g>
<g>
	<g>
		<path fill="#813D96" d="M239.378,100.282l-1.641,0.205l-4.033,17.295H230l-3.65-13.139h-0.082l-3.65,13.139h-3.705l-4.061-17.295
			l-1.627-0.205v-2.406h7.328v2.406l-1.818,0.314l2.283,10.91l0.082,0.014l3.732-13.645h2.939l3.76,13.645l0.082-0.014l2.27-10.91
			l-1.818-0.314v-2.406h7.314V100.282z"/>
	</g>
	<g>
		<path fill="#813D96" d="M238.011,115.389l1.422-0.205l6.057-17.309h4.088l6.016,17.309l1.422,0.205v2.393h-6.781v-2.393
			l1.381-0.246l-0.875-2.734h-6.453l-0.875,2.734l1.381,0.246v2.393h-6.781V115.389z M245.23,109.469h4.566l-2.242-7.014h-0.082
			L245.23,109.469z"/>
	</g>
</g>
<g>
	<g>
		<path fill="#813D96" d="M333.104,64.37l-0.082-0.014l-5.332,14.738h-2.68l-5.305-14.684l-0.082,0.014l0.383,8.736v3.131
			l2.133,0.41v2.393h-8.244v-2.393l2.119-0.41V62.004l-2.119-0.41v-2.406h2.119h5.209l5.072,14.67h0.082l5.113-14.67h7.355v2.406
			l-2.133,0.41v14.287l2.133,0.41v2.393h-8.244v-2.393l2.119-0.41v-3.131L333.104,64.37z"/>
	</g>
	<g>
		<path fill="#813D96" d="M360.612,59.188v2.406l-2.133,0.41v17.09h-3.979l-8.039-13.398l-0.082,0.014v10.582l2.133,0.41v2.393
			h-8.244v-2.393l2.119-0.41V62.004l-2.119-0.41v-2.406h2.119h3.992l8.039,13.398l0.082-0.014V62.004l-2.133-0.41v-2.406h6.111
			H360.612z"/>
	</g>
</g>
<g>
	<g>
		<path fill="#813D96" d="M422.63,81.588v-2.406h8.244v2.406l-2.133,0.41v14.287l2.133,0.41v2.393h-8.244v-2.393l2.133-0.41V81.999
			L422.63,81.588z"/>
	</g>
	<g>
		<path fill="#813D96" d="M432.392,99.088v-2.393l2.119-0.41V81.999l-2.119-0.41v-2.406h2.119h3.992h2.133v2.406l-2.133,0.41v14.027
			h5.619l0.191-2.502h3.049v5.564H432.392z"/>
	</g>
</g>
<g>
	<g>
		<path fill="#813D96" d="M519.839,97.453c0,2.917-0.834,5.327-2.502,7.232s-3.851,2.857-6.549,2.857
			c-2.688,0-4.859-0.952-6.514-2.857s-2.482-4.315-2.482-7.232v-0.301c0-2.898,0.825-5.305,2.475-7.219
			c1.65-1.914,3.819-2.871,6.508-2.871c2.698,0,4.883,0.957,6.557,2.871c1.672,1.914,2.508,4.32,2.508,7.219V97.453z M515.86,97.125
			c0-2.06-0.428-3.732-1.285-5.018c-0.856-1.285-2.123-1.928-3.801-1.928c-1.677,0-2.928,0.638-3.752,1.914
			c-0.826,1.276-1.238,2.953-1.238,5.031v0.328c0,2.097,0.418,3.785,1.252,5.065s2.084,1.921,3.752,1.921
			c1.687,0,2.953-0.641,3.801-1.921s1.271-2.969,1.271-5.065V97.125z"/>
	</g>
	<g>
		<path fill="#813D96" d="M521.438,89.755v-2.406h8.244v2.406l-2.133,0.41v5.742h8.121v-5.742l-2.133-0.41v-2.406h2.133h3.979h2.133
			v2.406l-2.133,0.41v14.287l2.133,0.41v2.393h-8.244v-2.393l2.133-0.41v-5.469h-8.121v5.469l2.133,0.41v2.393h-8.244v-2.393
			l2.119-0.41V90.166L521.438,89.755z"/>
	</g>
</g>
<g>
	<g>
		<path fill="#813D96" d="M651.583,92.671c2.279,0,4.076,0.586,5.395,1.757c1.316,1.171,1.975,2.705,1.975,4.601
			c0,1.905-0.658,3.437-1.975,4.594c-1.318,1.157-3.115,1.736-5.395,1.736h-3.363v4.416l2.133,0.41v2.393h-8.244v-2.393l2.119-0.41
			V95.488l-2.119-0.41v-2.406h2.119H651.583z M648.22,102.283h3.363c1.112,0,1.953-0.303,2.523-0.909
			c0.568-0.606,0.854-1.379,0.854-2.317c0-0.957-0.285-1.748-0.854-2.372c-0.57-0.624-1.411-0.937-2.523-0.937h-3.363V102.283z"/>
	</g>
	<g>
		<path fill="#813D96" d="M656.792,110.185l1.422-0.205l6.057-17.309h4.088l6.016,17.309l1.422,0.205v2.393h-6.781v-2.393
			l1.381-0.246l-0.875-2.734h-6.453l-0.875,2.734l1.381,0.246v2.393h-6.781V110.185z M664.011,104.265h4.566l-2.242-7.014h-0.082
			L664.011,104.265z"/>
	</g>
</g>
</svg>
